<?xml version="1.0" standalone="no"?>
<!DOCTYPE svg PUBLIC "-//W3C//DTD SVG 20010904//EN"
 "http://www.w3.org/TR/2001/REC-SVG-20010904/DTD/svg10.dtd">
<svg version="1.0" xmlns="http://www.w3.org/2000/svg"
 width="3740.000000pt" height="4268.000000pt" viewBox="0 0 3740.000000 4268.000000"
 preserveAspectRatio="xMidYMid meet">
<metadata>
Created by potrace 1.16, written by Peter Selinger 2001-2019
</metadata>
<g transform="translate(0.000000,4268.000000) scale(0.100000,-0.100000)"
fill="#000000" stroke="none">
<path d="M19085 42404 c-1143 -41 -2093 -136 -3095 -309 -4094 -706 -7559
-2511 -10184 -5305 -1866 -1986 -3338 -4544 -4115 -7151 -397 -1333 -605
-2545 -693 -4039 -17 -284 -17 -1370 0 -1665 56 -981 155 -1774 333 -2674 459
-2319 1417 -4669 2644 -6486 434 -644 812 -1096 1480 -1774 1185 -1201 2633
-2348 4205 -3331 706 -441 1536 -899 2023 -1115 59 -26 107 -52 107 -57 0 -6
-29 -60 -64 -122 -125 -218 -190 -369 -250 -573 -44 -151 -61 -242 -85 -433
-37 -295 -44 -543 -37 -1205 4 -424 3 -632 -4 -657 -14 -50 -55 -77 -200 -133
-168 -65 -341 -119 -852 -265 -557 -158 -643 -187 -780 -256 -287 -145 -547
-331 -813 -583 -166 -157 -270 -243 -334 -276 -54 -27 -143 -47 -338 -75 -176
-26 -223 -35 -358 -72 -262 -73 -383 -148 -469 -292 -113 -188 -106 -380 18
-494 76 -70 116 -85 215 -80 179 10 271 69 562 359 175 176 228 222 294 260
114 66 188 92 265 93 81 1 126 -21 147 -72 30 -71 10 -100 -307 -453 -203
-226 -266 -300 -506 -600 -207 -259 -271 -356 -304 -467 -76 -252 102 -480
337 -432 79 17 127 43 193 106 92 87 123 157 159 360 28 156 46 231 75 308 63
166 184 351 326 497 91 93 153 132 202 127 122 -12 90 -361 -88 -965 -108
-368 -127 -465 -126 -663 1 -249 80 -420 228 -495 53 -27 68 -30 154 -30 78 0
104 4 147 24 65 29 127 95 160 169 70 158 72 333 8 892 -37 327 -42 575 -14
729 30 161 94 280 169 311 94 39 254 -54 426 -248 47 -53 171 -211 276 -350
224 -298 259 -331 392 -379 53 -18 169 -18 224 1 135 48 231 198 234 364 2 88
-22 139 -103 227 -83 89 -162 147 -464 347 -253 167 -335 227 -429 316 -120
113 -189 225 -201 326 -12 98 42 259 114 339 115 128 281 185 961 327 1435
301 1939 467 2172 718 147 158 177 260 318 1107 105 629 118 698 171 945 71
323 130 470 195 486 42 11 197 -3 346 -31 76 -14 420 -88 765 -164 675 -150
1005 -217 1368 -280 961 -166 1634 -193 2250 -90 791 132 1788 489 2536 909
471 265 680 419 999 740 194 195 234 230 290 257 82 39 127 47 184 32 56 -14
110 -69 127 -131 16 -58 -3 -148 -92 -437 -125 -406 -157 -561 -146 -721 12
-178 67 -305 183 -429 154 -164 323 -283 884 -626 550 -336 811 -526 1027
-747 71 -73 93 -102 98 -131 17 -88 -17 -176 -185 -478 -195 -350 -308 -589
-346 -729 -24 -88 -24 -251 -1 -303 46 -101 142 -160 263 -160 93 0 151 27
206 96 101 129 165 309 267 757 27 118 59 240 70 271 43 112 125 199 190 199
11 0 36 -14 56 -31 60 -53 66 -90 70 -454 5 -451 33 -687 105 -892 62 -178
163 -299 310 -371 134 -65 224 -87 360 -86 138 1 207 23 275 88 85 81 92 218
20 374 -43 93 -109 159 -280 279 -263 185 -352 286 -406 463 -21 66 -24 95
-23 235 1 243 39 372 126 425 99 60 311 -9 460 -148 98 -92 177 -193 358 -452
180 -258 274 -375 353 -441 272 -227 542 -298 756 -198 125 58 190 130 211
231 21 107 -23 239 -111 329 -84 87 -162 111 -408 129 -202 14 -232 22 -337
82 -308 176 -716 563 -821 778 -16 34 -28 78 -31 116 -4 57 -2 63 28 98 70 79
151 107 470 161 338 58 439 95 546 200 81 80 116 153 122 254 4 63 1 86 -17
128 -27 62 -78 113 -151 150 -46 23 -67 28 -130 28 -64 0 -85 -5 -143 -33
-104 -51 -211 -138 -418 -338 -125 -122 -206 -192 -240 -209 -150 -76 -395
-87 -526 -24 -23 11 -84 58 -135 103 -51 46 -235 205 -408 355 -803 696 -1162
1067 -1304 1348 -47 94 -51 140 -22 241 14 48 46 140 71 203 311 773 1039
1427 2040 1831 142 57 355 128 385 128 52 0 151 -70 440 -310 427 -355 656
-526 935 -697 453 -277 851 -430 1299 -499 242 -37 287 -53 502 -180 265 -156
500 -236 874 -299 387 -65 619 -57 890 31 158 51 294 125 599 327 152 101 303
200 336 219 234 135 532 231 1435 463 1138 292 1617 446 2065 665 296 145 459
254 620 415 189 188 270 356 282 584 16 316 -135 633 -443 931 -263 255 -574
459 -1049 691 -443 215 -724 327 -1543 615 -405 142 -504 180 -580 218 -26 13
-144 95 -262 182 -648 475 -1006 674 -1343 745 -132 28 -379 30 -582 5 -259
-32 -356 -25 -914 70 -504 85 -701 106 -991 105 -210 0 -380 -14 -605 -52
-479 -79 -796 -190 -1176 -409 -329 -191 -311 -186 -631 -201 -388 -18 -2002
6 -2328 35 -639 58 -983 196 -1201 484 -113 150 -220 422 -248 635 -42 310 68
815 307 1404 165 407 442 965 670 1348 89 150 128 204 338 470 221 281 271
349 369 500 165 253 309 571 339 746 4 20 7 78 7 130 1 151 -43 261 -140 353
-75 69 -146 99 -252 104 -70 4 -94 1 -130 -15 -62 -28 -103 -65 -143 -131 -74
-122 -86 -247 -47 -472 48 -276 37 -404 -48 -575 -115 -231 -421 -587 -544
-634 -51 -20 -96 47 -126 184 -23 105 -32 231 -41 560 -15 509 -31 642 -95
780 -72 156 -218 234 -436 235 -121 0 -199 -29 -269 -99 -68 -68 -94 -132 -93
-234 0 -54 6 -79 29 -125 26 -51 38 -62 109 -104 242 -144 319 -340 355 -911
20 -324 -22 -552 -116 -626 -66 -52 -120 -10 -186 142 -154 361 -261 530 -463
733 -151 152 -258 231 -380 280 -94 38 -205 40 -282 5 -156 -70 -246 -306
-173 -452 45 -88 147 -147 355 -204 190 -53 252 -74 333 -112 185 -87 292
-280 293 -529 1 -167 -46 -314 -119 -374 -75 -62 -129 -75 -307 -74 -138 0
-183 4 -330 32 -328 63 -502 38 -626 -90 -59 -61 -83 -133 -83 -253 -1 -129
20 -192 81 -251 115 -112 347 -122 601 -28 126 47 164 67 340 176 159 99 285
162 344 172 58 10 115 -10 169 -61 77 -72 85 -131 31 -238 -55 -111 -133 -205
-416 -505 -232 -245 -296 -319 -373 -425 -109 -152 -193 -324 -235 -478 -19
-68 -22 -108 -22 -237 0 -140 3 -164 27 -243 16 -51 74 -180 135 -300 60 -117
120 -248 134 -292 79 -242 77 -440 -5 -600 -39 -76 -160 -197 -247 -248 -156
-90 -454 -153 -950 -199 -186 -18 -1086 -17 -1275 0 -233 21 -376 41 -680 93
-534 90 -874 122 -1320 122 -620 0 -1061 -85 -1412 -274 -54 -29 -102 -49
-115 -47 -133 19 248 668 568 967 41 39 170 134 286 212 367 248 545 402 657
569 111 166 148 308 138 526 -22 457 -161 1010 -507 2014 -282 820 -330 975
-330 1074 0 111 103 258 358 514 287 287 592 554 732 640 93 57 141 73 365
127 252 60 323 94 444 213 134 132 199 257 208 397 11 159 -84 275 -278 341
-145 49 -263 21 -364 -87 -65 -69 -94 -112 -188 -281 -43 -75 -95 -159 -117
-187 -111 -141 -504 -400 -742 -491 -92 -35 -118 -22 -118 57 0 160 158 442
400 713 138 154 170 226 170 379 0 193 -79 340 -219 408 -51 26 -65 28 -171
28 -105 0 -120 -3 -171 -28 -95 -46 -157 -127 -195 -252 -14 -48 -18 -87 -15
-195 7 -309 7 -302 -17 -355 -13 -27 -65 -113 -116 -190 -148 -223 -153 -234
-166 -449 -19 -307 -59 -434 -152 -482 -63 -33 -128 -6 -169 72 -26 47 -40 88
-123 354 -20 63 -61 167 -91 230 -69 145 -73 176 -61 475 8 198 7 241 -7 310
-52 251 -250 411 -467 376 -172 -28 -328 -164 -346 -302 -8 -64 28 -217 76
-316 35 -72 59 -102 173 -219 138 -141 170 -183 217 -274 72 -143 105 -352 98
-633 -5 -183 -15 -239 -46 -264 -40 -32 -157 0 -269 73 -93 61 -171 147 -302
334 -287 406 -337 456 -508 496 -131 31 -275 -1 -355 -79 -106 -103 -139 -295
-73 -429 39 -80 131 -166 230 -215 102 -51 149 -66 319 -103 217 -46 338 -115
535 -305 281 -271 478 -611 525 -905 42 -265 224 -1985 228 -2161 3 -103 -104
-219 -290 -317 -129 -68 -266 -119 -622 -236 -386 -126 -554 -207 -785 -380
-245 -183 -402 -346 -675 -696 -165 -213 -216 -269 -278 -309 -71 -45 -106
-42 -254 25 -1041 469 -2154 1416 -3107 2643 -1086 1397 -1909 3101 -2341
4846 -209 846 -328 1642 -382 2560 -15 270 -15 1118 1 1390 53 917 158 1653
372 2620 563 2540 1569 4755 2978 6555 376 481 750 899 1202 1345 1295 1276
2806 2269 4574 3005 624 260 1409 522 2095 699 1007 259 2167 440 3160 491
113 5 244 12 291 15 149 9 914 6 1108 -5 578 -32 1125 -97 1710 -205 1690
-310 3580 -1010 5006 -1854 257 -152 319 -218 281 -297 -71 -149 -564 -247
-1481 -294 -959 -49 -1658 -214 -2280 -538 -705 -367 -1215 -962 -1380 -1610
-42 -164 -30 -205 51 -183 67 18 120 60 236 184 341 362 745 666 1173 880 649
324 1378 454 2420 432 902 -19 1225 -3 1815 90 905 142 1448 377 1602 692 31
64 33 74 33 173 0 124 -21 204 -91 345 -227 458 -898 1003 -2034 1652 -238
137 -430 241 -822 449 -183 97 -472 251 -643 342 -584 312 -965 486 -1530 699
-1422 534 -3185 913 -4963 1068 -697 61 -1066 76 -1872 79 -393 2 -755 2 -805
0z"/>
</g>
</svg>
